PathFileType	4	(X/Y/Z)	Patient4_TMGait_0pt5_02_right_43.trc.trc
DataRate	CameraRate	NumFrames	NumMarkers	Units	OrigDataRate	OrigDataStartFrame	OrigNumFrames
79.545454545455	79.545454545455	5	33	mm	79.545454545455	89	       141
Frame#	Time	Sacral			L.Shoulder			Chest			R.Shoulder			Neck			R.ASIS			L.ASIS			R.Thigh.Superior			R.Thigh.Lateral			R.Thigh.Inferior			R.Patella			L.Thigh.Superior			L.Thigh.Lateral			L.Thigh.Inferior			L.Patella			L.Shank.Superior			L.Shank.Lateral			L.Shank.Inferior			R.Shank.Superior			R.Shank.Lateral			R.Shank.Inferior			R.Heel			R.Midfoot.Superior			R.Midfoot.Lateral			R.Toe			L.Heel			L.Midfoot.Lateral			L.Midfoot.Superior			L.Toe			L.Elbow			L.Wrist			R.Elbow			R.Wrist			
		X1	Y1	Z1	X2	Y2	Z2	X3	Y3	Z3	X4	Y4	Z4	X5	Y5	Z5	X6	Y6	Z6	X7	Y7	Z7	X8	Y8	Z8	X9	Y9	Z9	X10	Y10	Z10	X11	Y11	Z11	X12	Y12	Z12	X13	Y13	Z13	X14	Y14	Z14	X15	Y15	Z15	X16	Y16	Z16	X17	Y17	Z17	X18	Y18	Z18	X19	Y19	Z19	X20	Y20	Z20	X21	Y21	Z21	X22	Y22	Z22	X23	Y23	Z23	X24	Y24	Z24	X25	Y25	Z25	X26	Y26	Z26	X27	Y27	Z27	X28	Y28	Z28	X29	Y29	Z29	X30	Y30	Z30	X31	Y31	Z31	X32	Y32	Z32	X33	Y33	Z33	

89	57.236285714286	690.304232852885	1021.781741062252	472.573786964782	887.400191919236	1427.268540463546	267.686763949825	993.435060249268	1352.460506220350	424.246587521587	929.624166727488	1441.224446559958	600.044170655794	905.397390458207	1493.538757371738	414.318195470897	914.434168988168	940.591984531886	579.757976008152	892.958903910025	956.867589830516	306.696311932519	941.215926415582	733.257358310440	555.193889817808	855.236089596606	630.723631412171	620.823890748238	926.841504039956	567.750379339148	541.044441075128	915.502539449732	462.725799539224	557.241680685718	950.656984065276	758.359651547551	341.076388771288	870.992367514481	639.141491086137	281.498433446005	960.304035172196	566.288125099787	345.805628530520	965.132132677623	495.053671626516	355.116373155421	938.683544915235	423.101343340588	345.743479966630	852.654427093751	308.219919218569	291.112188472842	903.632261245885	197.041834397709	362.381459518654	845.477283685556	394.510908761672	566.667135208265	735.693691579183	339.537341423527	633.689226484430	728.730725210354	231.771121495719	580.801625012916	532.987638999269	138.312484091409	564.691158003220	710.688291513215	114.835701614492	596.609894811327	606.676206120781	96.109862170762	636.935810489249	795.964443773868	33.066028234996	622.823673433713	774.043361958648	40.150663506010	397.744045663305	851.275347280499	36.722850302515	320.419333451578	934.157033163580	96.910348094805	349.753641901007	1063.173626010132	40.753529104252	326.852793802775	808.765588746339	1079.389410646245	155.696945888890	916.455193459450	841.056918861780	136.075900969085	940.386988228844	1091.393982256993	713.319035004968	1085.641350894667	887.423156852218	640.808472346576	
90	57.248857142857	690.046081431717	1021.814126634662	470.331020446153	886.724979941829	1427.944249712281	265.725822416451	992.616909030565	1353.215118404268	422.418474395936	928.267505857405	1441.492986863606	598.251319957749	904.106731238894	1494.039682609326	412.489355781588	914.231883904104	940.887598015475	577.367666865151	892.873539422210	957.284833747371	304.349915639384	945.398684264359	735.364712376203	552.251597635239	862.382180757474	631.082654495412	618.557557047294	935.466303186898	569.308770187840	538.649267302118	925.366690458169	462.883646175157	555.770063689551	949.150207673434	757.462398182967	337.940569180300	867.945679576000	639.074593002158	279.383775931746	956.629314463655	565.503982735117	343.534721142763	960.814101969464	494.378184132903	353.039960243451	934.117866972580	422.516919449332	344.032478608908	847.451902112760	307.863811415802	289.978352878354	897.932731553481	196.718016003281	361.652796621784	853.343026663939	395.489502827474	565.087396142183	741.517447005395	344.106327346032	631.535633278444	732.030758336873	236.201254927887	579.533471459526	534.022711467791	150.444585868422	562.704832219423	710.120213370366	118.406359448837	595.336755885957	605.199288216743	105.209610227995	635.457871928024	790.753586588441	32.352597129725	622.724595128148	767.666630291291	40.133829502203	397.644338114472	844.887360776350	36.618450183009	320.304981209282	927.800951656384	96.775267510544	349.573669172725	1056.818138704788	40.535394587328	326.761357195364	808.775359459141	1080.379063129528	152.373095447695	921.324099969442	844.114283635588	134.982491917088	934.156851012714	1091.786931551726	712.520872995159	1067.567800839349	876.858716544597	647.367186740537	
91	57.261428571429	689.626478188320	1021.753866995661	468.235888805802	886.017225349825	1428.523792496272	263.954549934874	991.746478472026	1353.782226270050	420.762793963144	926.876899810568	1441.528116989588	596.669590077507	902.834690972659	1494.411610429346	410.875717376855	913.900049420553	941.122368337720	575.082278698229	892.604974336977	957.641316336365	302.033653301295	949.606925527283	737.704284396648	549.153554297549	869.959667515163	631.606750599257	616.318499489653	944.447000155108	571.213195992327	536.172023290544	935.780909735090	463.436921464742	554.133476647793	947.469925374848	756.575286243410	334.941633197363	864.764496717083	638.992577335008	277.357264948891	952.834071156291	564.705487372235	341.332681237627	956.399032158686	493.676634992293	351.035969150705	929.469717928325	421.918596724214	342.390098213531	842.185252071183	307.494196061896	288.874580391122	892.186785159629	196.382661330503	360.960851415974	861.851622914808	396.718157845705	563.353110382564	748.093019627269	348.922970362028	629.211644911261	736.060734878113	240.997299126016	578.031614029281	536.101327986870	163.021305214579	560.310282143612	710.271471902227	122.620934324861	593.896425227388	604.612723368791	114.961752119613	633.693955017494	786.165969840791	31.886680516468	622.706323925085	761.292333151225	40.079658562048	397.543349221789	838.499854898895	36.509174477941	320.178380351282	921.418016952974	96.652370144916	349.397493671834	1050.449974374899	40.425141946101	326.659963975099	808.848458211150	1081.269462486343	149.170036285311	926.048543425072	847.114844374063	134.118944134959	927.109700118458	1092.102671887078	712.082586723097	1048.726493463418	867.670710186427	654.689025636687	
92	57.274000000000	689.040564426447	1021.616188167710	466.283095358094	885.283897184817	1429.011242411460	262.369350108631	990.823370459682	1354.171857578818	419.283349440963	925.449764540337	1441.360025661619	595.291649662826	901.603118619888	1494.667275808985	409.468192212990	913.428160060234	941.323746073714	572.921573363381	892.156707442700	957.939858411509	299.783461608906	953.739757769310	740.277113832888	545.970645022112	877.793638997125	632.354922947662	614.114075159088	953.608220032777	573.508352401842	533.648277609532	946.579062433991	464.447713036554	552.334192424903	945.651333907736	755.700115713141	332.109989359267	861.479869748473	638.883903233143	275.461162754922	948.960865202453	563.891824455716	339.247765136002	951.927791454430	492.949320361888	349.168786558020	924.771785007817	421.311464536251	340.868713865353	836.885366604903	307.125787286402	287.837103991528	886.407195681890	196.039799657029	360.332443004971	870.876260828389	398.241493516421	561.479953884643	755.321739500868	353.936806414194	626.742163751209	740.803675014196	246.092696782690	576.321257670989	539.238115797793	175.688010781883	557.548313419208	711.269092565432	127.438029930185	592.374509836342	605.028226956098	125.106702291137	631.679279970982	782.458639915465	31.843133118119	622.779441378985	754.922385810053	39.994983597547	397.447131672076	832.114107289129	36.400697176995	320.047058011721	915.015487882881	96.543589536979	349.232925590227	1044.072888496291	40.405665516842	326.549335928069	809.019828576513	1082.046270327457	146.116384805213	930.628359404382	850.021327566896	133.495728187668	919.251638080724	1092.417765539436	712.032861940840	1029.265970434684	859.902884357213	662.672884782906	
93	57.286571428571	688.288156137077	1021.419192783840	464.459912973735	884.539725720710	1429.412910368892	260.960887765951	989.846965094443	1354.405133715238	417.985763491972	923.971972709958	1441.032169999575	594.105065016544	900.424826186026	1494.824763873980	408.251201465570	912.806160126945	941.516346989037	570.901053232198	891.536710243930	958.178417400139	297.641386289446	957.707871148981	743.072246379904	542.791326898174	885.702434696164	633.374425628987	611.952658764810	962.774155873881	576.223234828746	531.116006466066	957.589669439505	465.963026443338	550.382628733025	943.730011950195	754.832631107094	329.477471371829	858.139652529757	638.739596570729	273.728115092091	945.055333008758	563.063017017054	337.332704622585	947.441836728894	492.195324236582	347.495806094953	920.057207285206	420.697645178767	339.512811592151	831.581796885762	306.769844555051	286.898158885931	880.605921311551	195.691340689697	359.789855662932	880.287315274262	400.091963044137	559.496252834232	763.101804030407	359.075843490472	624.171035340197	746.247261851576	251.386620037200	574.452421530246	543.424838780185	188.033000936368	554.513022157883	713.252924220274	132.755011945347	590.869267478728	606.557850090137	135.315889464195	629.485289919388	779.929326761033	32.379744948626	622.938730569834	748.555442591250	39.887226421595	397.360997039368	825.729240548546	36.297330110502	319.918045399708	908.599059251973	96.448712178350	349.086954527759	1037.688700133118	40.455410372483	326.432361858162	809.315850037435	1082.701371147400	143.237713665016	935.066360435409	852.804647286000	133.125324433167	910.642395590399	1092.821015594920	712.379039393784	1009.349750192600	853.564838736097	671.191740501892	
